<svg xmlns="http://www.w3.org/2000/svg" version="1.1" xmlns:xlink="http://www.w3.org/1999/xlink" xmlns:svgjs="http://svgjs.dev/svgjs" viewBox="0 0 800 800" opacity="1"><g stroke-width="11" stroke="#0faafa" fill="none"><path d="M1682.1933623460686 -843.2723998543768C1960.590663353738 -227.42234530288238 1780.3696823243304 1281.8564243516607 1364.7917003649018 1814.8398085297808C949.2137184054727 2347.8231927079014 181.07284524772695 2054.8290493150466 -312.5809510591844 1715.0478442006033C-806.2347473660955 1375.266639086161 -1075.8018566139503 778.9500859633763 -1004.7465219082703 183.89002398046046C-933.6911872025901 -411.17003800245493 -531.2944870249003 -927.2482816851327 28.48465552808716 -1141.240453317389C588.2637980810748 -1355.2326249496455 1403.7960613383993 -1459.1224544058712 1682.1933623460686 -843.2723998543768C1960.590663353738 -227.42234530288238 1780.3696823243304 1281.8564243516607 1364.7917003649018 1814.8398085297808 "></path><path d="M1655.4809968158283 -817.3710066007782C1928.0783540525044 -214.35116151910665 1751.6119767945434 1263.4843004342997 1344.6918694592691 1785.3638641087095C937.7717621239954 2307.243427783119 185.63382382370196 2020.353329044282 -297.7355183934819 1687.65089903639C-781.1048606106658 1354.948469028498 -1045.055988415857 771.0551774291048 -975.480973183212 188.3922000708335C-905.9059579505667 -394.270777287438 -511.89252235991216 -899.5973908933934 36.224554723221445 -1109.131392283311C584.341631806355 -1318.6653936732287 1382.8836395791518 -1420.3908516824497 1655.4809968158283 -817.3710066007782C1928.0783540525044 -214.35116151910665 1751.6119767945434 1263.4843004342997 1344.6918694592691 1785.3638641087095 "></path><path d="M1628.768631285588 -791.4693997241326C1895.566044751271 -201.27976411228383 1722.8542712647554 1245.1123901399865 1324.5920385536365 1755.8881333106851C926.3298058425171 2266.6638764813842 190.1948023996772 1985.877822396565 -282.8900857277795 1660.2541674952236C-755.9749738552362 1334.6305125938825 -1014.3101202177637 763.1604825178806 -946.2154244581536 192.89458978425318C-878.1207286985434 -377.37130294937424 -492.49055769492395 -871.9462864786069 43.96445391835573 -1077.0221176261862C580.4194655316355 -1282.097948773765 1361.9712178199047 -1381.6590353359813 1628.768631285588 -791.4693997241326C1895.566044751271 -201.27976411228383 1722.8542712647554 1245.1123901399865 1324.5920385536365 1755.8881333106851 "></path><path d="M1602.0561436850348 -765.5679149177995C1863.053613379725 -188.20848877577328 1694.0964436646555 1226.7403577753607 1304.492085577691 1726.4122804423487C914.8877274907263 2226.084203109336 194.75565890533971 1951.4021936785348 -268.04477513238953 1632.8573138837446C-730.8452091701189 1314.3124340889544 -983.5643740899828 755.2656655363439 -916.9499978034077 197.3968574273606C-850.3356215168326 -360.47195068162273 -473.08871510024824 -844.2953041341332 51.704231043177515 -1044.9129650393734C576.4971771866033 -1245.5306259446138 1341.0586739903451 -1342.9273410598255 1602.0561436850348 -765.5679149177995C1863.053613379725 -188.20848877577328 1694.0964436646555 1226.7403577753607 1304.492085577691 1726.4122804423487 "></path><path d="M1575.343900225107 -739.6664301114665C1830.5414261488036 -175.13721343926318 1665.3388602051805 1208.3683254107345 1284.3923767423707 1696.9364275740113C903.4458932795615 2185.5045297372885 199.31675955162723 1916.9265649605045 -253.1992203963747 1605.4604602722652C-705.7152003443766 1293.994355584026 -952.818383821577 747.3708485548068 -887.6843270080368 201.8991250704678C-822.5502701944966 -343.57259841387145 -453.68662836494764 -816.6443217896594 59.44425230862407 -1012.803812452561C572.5751329821962 -1208.9633031154626 1320.14637430141 -1304.1956467836696 1575.343900225107 -739.6664301114665C1830.5414261488036 -175.13721343926318 1665.3388602051805 1208.3683254107345 1284.3923767423707 1696.9364275740113 "></path><path d="M1548.6315346948668 -713.7649453051334C1798.0291168475705 -162.06593810275308 1636.581154675393 1189.9962930461083 1264.292545836738 1667.4605747056748C892.0039369980832 2144.924856365241 203.87773812760224 1882.450936242475 -238.35378773067225 1578.0636066607867C-680.585313588947 1273.6762770790979 -922.0725156234836 739.4760315732701 -858.4187782829785 206.40139271357498C-794.7650409424733 -326.67324614612016 -434.28466369995954 -788.9933394451856 67.18415150375859 -980.6946598657486C568.6529667074765 -1172.3959802863117 1299.233952542163 -1265.4639525075138 1548.6315346948668 -713.7649453051334C1798.0291168475705 -162.06593810275308 1636.581154675393 1189.9962930461083 1264.292545836738 1667.4605747056748 "></path><path d="M1521.9191691646265 -687.8636436042691C1765.5168075463366 -148.9948458717115 1607.8234491456055 1171.6240775760134 1244.1927149311055 1637.9845387318687C880.5619807166049 2104.3449998877245 208.43871670357748 1847.975124418976 -223.50835506496992 1550.6665699438386C-655.4554268335172 1253.358015468701 -891.3266474253902 731.5810314862647 -829.1532295579201 210.90347725121342C-766.9798116904499 -309.7740769838374 -414.8826990349713 -761.3425402061805 74.92405069889264 -948.5856903844049C564.7308004327567 -1135.8288405626292 1278.3215307829155 -1226.7324413368267 1521.9191691646265 -687.8636436042691C1765.5168075463366 -148.9948458717115 1607.8234491456055 1171.6240775760134 1244.1927149311055 1637.9845387318687 "></path><path d="M1495.2066815640733 -661.9620062100454C1733.004376174791 -135.92341794731055 1579.0656215455056 1153.2521977992783 1224.0927619551603 1608.508838451423C869.1199023648146 2063.765479103567 212.99957320924 1813.4996482888369 -208.66304446957997 1523.2698689202502C-630.3256621483999 1233.0400895516636 -860.5809012976093 723.6863670926186 -799.8878029031741 215.40589748221146C-739.194704508739 -292.8745721281955 -395.4808564402956 -733.6914052738161 82.66382782371466 -916.4763852097018C560.8085120877247 -1099.2613651455874 1257.408986953356 -1188.0005944727802 1495.2066815640733 -661.9620062100454C1733.004376174791 -135.92341794731055 1579.0656215455056 1153.2521977992783 1224.0927619551603 1608.508838451423 "></path><path d="M1468.494316033833 -636.0603688158218C1700.4920668735576 -122.85199002290983 1550.307916015718 1134.8803180225427 1203.9929310495277 1579.0331381709761C857.6779460833368 2023.18595831941 217.560551785215 1779.0241721586976 -193.81761180387753 1495.8731678966615C-605.1957753929703 1212.7221636346262 -829.8350330995161 715.7917026989721 -770.6222541781158 219.90831771320927C-711.4094752567157 -275.9750672725536 -376.0788917753075 -706.0402703414518 90.40372701884871 -884.3670800349987C556.8863458130049 -1062.6938897285456 1236.4965651941088 -1149.2687476087337 1468.494316033833 -636.0603688158218C1700.4920668735576 -122.85199002290983 1550.307916015718 1134.8803180225427 1203.9929310495277 1579.0331381709761 "></path><path d="M1441.782011538749 -610.1588840094887C1667.9798186074804 -109.7807146863995 1521.5502715210869 1116.508285657917 1183.8931611790508 1549.5572853026392C846.2360508370152 1982.6062849473624 222.1215913963465 1744.5485434406678 -178.97211810301894 1468.476314285183C-580.0658276023843 1192.4040851296982 -799.0891038662664 707.8968857174355 -741.3566444179012 224.4105853563167C-683.6241849695361 -259.0757150048021 -356.67686607516316 -678.3892879969779 98.14368724913925 -852.2579274481863C552.9642405734414 -1026.1265668993944 1215.5842044700175 -1110.537053332578 1441.782011538749 -610.1588840094887C1667.9798186074804 -109.7807146863995 1521.5502715210869 1116.508285657917 1183.8931611790508 1549.5572853026392 "></path><path d="M1415.0696460085087 -584.2573992031557C1635.467509306247 -96.70943934988918 1492.7925659912994 1098.1362532932903 1163.7933302734182 1520.0814324343023C834.794094555537 1942.0266115753143 226.68256997232174 1710.0729147226375 -164.1266854373165 1441.0794606737036C-554.9359408469545 1172.0860066247697 -768.3432356681731 700.0020687358985 -712.0910956928428 228.91285299942388C-655.8389557175128 -242.17636273705102 -337.27490141017495 -650.7383056525042 105.88358644427353 -820.1487748613738C549.0420742987219 -989.5592440702434 1194.6717827107705 -1071.805359056422 1415.0696460085087 -584.2573992031557C1635.467509306247 -96.70943934988918 1492.7925659912994 1098.1362532932903 1163.7933302734182 1520.0814324343023 "></path><path d="M1388.3573415134247 -558.3557923265101C1602.9552610401697 -83.63804194306658 1464.0349214966682 1079.7643429989766 1143.6935604029418 1490.6057016362784C823.3521993092154 1901.4470602735792 231.24360958345278 1675.5974080749202 -149.2811917364579 1413.6827291325371C-529.8059930563686 1151.768050190154 -737.5973064349234 692.1073738246744 -682.8254859326282 233.41524271284356C-628.0536654303331 -225.276888398987 -317.8728757100305 -623.0872012377179 113.62354667456384 -788.0395002042488C545.1199690591586 -952.9917991707798 1173.7594219866796 -1033.0735427099537 1388.3573415134247 -558.3557923265101C1602.9552610401697 -83.63804194306658 1464.0349214966682 1079.7643429989766 1143.6935604029418 1490.6057016362784 "></path><path d="M1361.6448539128714 -532.454307520177C1570.4428296686237 -70.56676660655648 1435.2770938965682 1061.392310634351 1123.5936074269966 1461.129848767941C811.9101209574251 1860.8673869015315 235.80446608911552 1641.1217793568903 -134.43588114106797 1386.2858755210577C-504.67622837125134 1131.449971685226 -706.8515603071426 684.2125568431372 -653.5600592778824 237.91751035595075C-600.2685582486223 -208.37753613123596 -298.4710331153549 -595.4362188932441 121.36332379938585 -755.9303476174364C541.1976807141264 -916.4244763416286 1152.8468781571196 -994.3418484337978 1361.6448539128714 -532.454307520177C1570.4428296686237 -70.56676660655648 1435.2770938965682 1061.392310634351 1123.5936074269966 1461.129848767941 "></path><path d="M1334.9327935584124 -506.55291426657845C1537.9308255431715 -57.49558282278031 1406.519693542562 1043.0201867169903 1103.4940816971452 1431.6539043468697C800.4684698517283 1820.2876219767495 240.36574984087179 1606.6460590861261 -119.59014329958427 1358.8889303568449C-479.5460364400403 1111.1318016275636 -676.1053869332679 676.3176483088662 -624.2942053770428 242.4196864463238C-572.4830238208176 -191.47827541621882 -279.06876327458554 -567.7853281015045 129.10352817030116 -723.8212865833582C537.2758196151879 -879.8572450652118 1131.9347615736533 -955.6102457103764 1334.9327935584124 -506.55291426657845C1537.9308255431715 -57.49558282278031 1406.519693542562 1043.0201867169903 1103.4940816971452 1431.6539043468697 "></path><path d="M1308.2202449227034 -480.651337907511C1505.4183331364693 -44.424215933535834 1377.7618049073053 1024.648245905099 1083.3940676860439 1402.1781430312676C789.0263304647815 1779.7080401574362 244.92654531137805 1572.1705219208307 -104.74489373935057 1331.4921682980998C-454.4163327900794 1090.81381467537 -645.3597018406433 668.4229228800641 -595.0288397574532 246.92204564216559C-544.697977674263 -174.57883159573305 -259.6669817150661 -540.1342542042964 136.84324425996692 -691.7120424438114C533.3534702349996 -843.2898306833263 1111.0221567089375 -916.8784598814863 1308.2202449227034 -480.651337907511C1505.4183331364693 -44.424215933535834 1377.7618049073053 1024.648245905099 1083.3940676860439 1402.1781430312676 "></path><path d="M1281.507848874885 -454.7498531011779C1472.9059933176577 -31.35294059702551 1349.0040688599402 1006.2762135404728 1063.2942062628329 1372.7022901629307C777.5843436657256 1739.1283667853882 249.48749336977517 1537.6948932028008 -89.89949159122637 1304.095314686621C-429.2864765522278 1070.4957361704414 -614.6138641601281 660.5281058985272 -565.7633215499729 251.42431328527277C-516.9127789398178 -157.67947932798177 -240.26504756765598 -512.4832718598227 144.58311293752286 -659.6028898569989C529.4312734427017 -806.7225078541752 1090.1097044321125 -878.1467656053303 1281.507848874885 -454.7498531011779C1472.9059933176577 -31.35294059702551 1349.0040688599402 1006.2762135404728 1063.2942062628329 1372.7022901629307 "></path><path d="M1254.7954528270666 -428.84836829484493C1440.393653498846 -18.281665260515183 1320.2463328125746 987.904181175847 1043.1943448396219 1343.2264372945938C766.1423568666694 1698.548693413341 254.04844142817228 1503.2192644847705 -75.05408944310204 1276.6984610751424C-404.1566203143762 1050.1776576655134 -583.8680264796128 652.6332889169905 -536.4978033424927 255.9265809283802C-489.12758020537257 -140.78012706023037 -220.863113420246 -484.83228951534886 152.32298161507902 -627.4937372701864C525.509076650404 -770.155185025024 1069.197252155287 -839.4150713291746 1254.7954528270666 -428.84836829484493C1440.393653498846 -18.281665260515183 1320.2463328125746 987.904181175847 1043.1943448396219 1343.2264372945938 "></path><path d="M1228.0831178144044 -402.94673090062133C1407.8813747151908 -5.21023733611446 1291.4886578003652 969.5323013991112 1023.0945444515673 1313.750737014147C754.7004311027697 1657.9691726291835 258.6094505217252 1468.7437883546309 -60.20862625982147 1249.3017600515532C-379.02670304136836 1029.8597317484755 -553.1221277639413 644.738624523344 -507.2322240998562 260.429001159378C-461.34232043577106 -123.88062220458846 -201.46111823767978 -457.1811545829845 160.06291132779143 -595.3844320954834C521.5869408932624 -733.5877096079823 1048.2848609136179 -800.683224465128 1228.0831178144044 -402.94673090062133C1407.8813747151908 -5.21023733611446 1291.4886578003652 969.5323013991112 1023.0945444515673 1313.750737014147 "></path><path d="M1201.370721766586 -377.04524609428813C1375.3690348963792 7.861038000395638 1262.7309217529996 951.1602690344853 1002.9946830283566 1284.2748841458106C743.2584443037135 1617.3894992571359 263.1703985801223 1434.2681596366015 -45.363224111697264 1221.9049064400747C-353.8968468035167 1009.5416532435477 -522.376290083426 636.8438075418073 -477.96670589237596 264.9312688024852C-433.55712170132585 -106.98126993683707 -182.0591840902697 -429.53017223851066 167.80278000534747 -563.2752795086709C517.6647441009648 -697.0203867788312 1027.3724086367924 -761.9515301889722 1201.370721766586 -377.04524609428813C1375.3690348963792 7.861038000395638 1262.7309217529996 951.1602690344853 1002.9946830283566 1284.2748841458106 "></path><path d="M1174.6584172715018 -351.14376128795516C1342.856786630302 20.932313336905963 1233.9732772583684 932.7882366698591 982.89491315788 1254.7990312774732C731.8165490573917 1576.8098258850878 267.7314381912536 1399.7925309185712 -30.517730410838567 1194.5080528285953C-328.76689901293076 989.2235747386196 -491.63036085017643 628.9489905602704 -448.70109613216135 269.4335364455924C-405.7718314141462 -90.08191766908578 -162.65715839012523 -401.8791898940369 175.5427402356379 -531.1661269218584C513.7426388614012 -660.45306394968 1006.4600479127014 -723.2198359128164 1174.6584172715018 -351.14376128795516C1342.856786630302 20.932313336905963 1233.9732772583684 932.7882366698591 982.89491315788 1254.7990312774732 "></path><path d="M1147.9461127764175 -325.24227648162207C1310.3445383642247 34.00358867341629 1205.2156327637372 914.4162043052329 962.7951432874036 1225.3231784091367C720.3746538110702 1536.2301525130401 272.29247780238484 1365.3169022005413 -15.67223670997987 1167.1111992171163C-303.6369512223448 968.9054962336916 -460.8844316169268 621.0541735787338 -419.4354863719467 273.93580408869957C-377.98654112696664 -73.18256540133439 -143.25513268998088 -374.2282075495631 183.28270046592854 -499.05697433504594C509.82053362183797 -623.8857411205288 985.5476871886103 -684.4881416366605 1147.9461127764175 -325.24227648162207C1310.3445383642247 34.00358867341629 1205.2156327637372 914.4162043052329 962.7951432874036 1225.3231784091367 "></path><path d="M1121.2337167285991 -299.3407916752891C1277.8321985454131 47.0748640099265 1176.4578967163714 896.0441719406069 942.6952818641928 1195.8473255407998C708.932667012014 1495.6504791409925 276.85342586078195 1330.8412734825115 -0.8268345618555486 1139.7143456056374C-278.50709498449316 948.5874177287633 -430.13859393641155 613.1593565971971 -390.16996816446647 278.438071731807C-350.2013423925214 -56.283213133583104 -123.85319854257091 -346.57722520508923 191.0225691434846 -466.9478217482335C505.8983368295401 -587.3184182913777 964.6352349117849 -645.7564473605047 1121.2337167285991 -299.3407916752891C1277.8321985454131 47.0748640099265 1176.4578967163714 896.0441719406069 942.6952818641928 1195.8473255407998 "></path><path d="M1094.5213511983588 -273.439306868956C1245.3198892441796 60.146139346436826 1147.7001911865839 877.6721395759807 922.5954509585601 1166.371472672463C697.4907107305362 1455.0708057689444 281.4144044367571 1296.3656447644817 14.01859810384667 1112.3174919941582C-253.37720822906346 928.269339223835 -399.3927257383182 605.2645396156599 -360.9044194394081 282.9403393749144C-322.41611314049806 -39.38386086583171 -104.4512338775827 -318.9262428606155 198.76246833861887 -434.838669161421C501.9761705548203 -550.7510954622265 943.722813152538 -607.0247530843488 1094.5213511983588 -273.439306868956C1245.3198892441796 60.146139346436826 1147.7001911865839 877.6721395759807 922.5954509585601 1166.371472672463 "></path><path d="M1067.8090161856965 -247.5376694747324C1212.8076104605243 73.21756727083766 1118.9425161743745 859.3002597992454 902.4956505705054 1136.8957723920164C686.0487849666363 1414.4912849847879 285.9754135303102 1261.8901686343424 28.864061287127242 1084.92079097057C-228.24729095605562 907.9514133067973 -368.64682702264673 597.3698752220139 -331.63884019677164 287.4427596059122C-294.63085337089655 -22.484356010189686 -85.04923869501636 -291.27510792825103 206.50239805133128 -402.72936398671794C498.0540347976789 -514.1836200451849 922.8104219108689 -568.2929062203024 1067.8090161856965 -247.5376694747324C1212.8076104605243 73.21756727083766 1118.9425161743745 859.3002597992454 902.4956505705054 1136.8957723920164 "></path><path d="M1041.0966811730343 -221.63621518597745C1180.295331676869 86.28881208976975 1090.1848411621652 840.9281969170413 882.3958501824509 1107.4198890061014C674.6068592027364 1373.9115810951616 290.5364226238635 1227.4145093987345 43.709524470407814 1057.5239068415126C-203.11737368304773 887.6333042842914 -337.90092830697523 589.4750277228991 -302.37326095413516 291.9449967314413C-266.84559360129504 -5.585034260016528 -65.64724351245013 -263.6241561013554 214.24232776404358 -370.6202419174836C494.1318990405375 -477.6163277336118 901.8980306691997 -529.5612424617246 1041.0966811730343 -221.63621518597745C1180.295331676869 86.28881208976975 1090.1848411621652 840.9281969170413 882.3958501824509 1107.4198890061014 "></path><path d="M1014.3842546076378 -195.73469986206624C1147.7829613404792 99.36011794385809 1061.4270745972215 822.5561950699932 862.295958241662 1077.9440666553426C663.1648418861023 1333.3319382406921 295.09734016468235 1192.9389111982825 58.55489610095401 1030.1270837476118C-177.98754796277433 867.3152562969412 -307.1551211440381 581.5802412589403 -273.107773264233 296.4472948921266C-239.06042538442796 11.31434852531288 -46.24533988261828 -235.97314323930345 221.98216592402161 -338.51105881309303C490.2096717306615 -441.0489743868825 880.9855478747961 -490.8295176679907 1014.3842546076378 -195.73469986206624C1147.7829613404792 99.36011794385809 1061.4270745972215 822.5561950699932 862.295958241662 1077.9440666553426 "></path><path d="M987.6719195949754 -169.83321505573326C1115.2706825568237 112.43139328036841 1032.6693995850121 804.1841627053673 842.1961578536072 1048.4682137870057C651.7229161222026 1292.7522648686443 299.6583492582355 1158.4632824802522 73.40035928423458 1002.7302301361326C-152.85763068976644 846.997177792013 -276.4092224283666 573.6854242774034 -243.84219402159653 300.9495625352338C-211.27516561482645 28.213700793064277 -26.843344700051944 -208.32216089482972 229.7220956367339 -306.4019062262805C486.2875359735199 -404.48165155773137 860.0731566331269 -452.0978233918348 987.6719195949754 -169.83321505573326C1115.2706825568237 112.43139328036841 1032.6693995850121 804.1841627053673 842.1961578536072 1048.4682137870057 "></path><path d="M960.9595540647351 -143.93173024940018C1082.7583732555902 125.50266861687862 1003.9116940552246 785.8121303407411 822.0963269479746 1018.9923609186687C640.2809598407243 1252.1725914965966 304.2193278342106 1123.9876537622224 88.24579194993692 975.3333765246537C-127.72774393433673 826.6790992870849 -245.66335423027323 565.7906072958667 -214.57664529653817 305.4518301783411C-183.48993636280306 45.11305306081567 -7.44138003506373 -180.67117855035588 237.4619948318682 -274.29275363946806C482.36536969880035 -367.91432872858024 839.1607348738796 -413.366129115679 960.9595540647351 -143.93173024940018C1082.7583732555902 125.50266861687862 1003.9116940552246 785.8121303407411 822.0963269479746 1018.9923609186687 "></path><path d="M934.2471885344946 -118.03018440791084C1050.246063954357 138.57400498854508 975.1539885254372 767.4401590112714 801.996496042342 989.5165690854881C628.8390035592465 1211.592979159705 308.78030641018563 1089.5120860793488 103.09122461563936 947.9365839483307C-102.59785717890702 806.3610818173131 -214.91748603217985 557.8958513494861 -185.31109657147982 309.95415885660464C-155.70470711077974 62.012466363723206 11.96058462992437 -153.0201351707259 245.20189402700248 -242.18354001749935C478.4432034240806 -331.3469448642728 818.2483131146325 -374.6343738043669 934.2471885344946 -118.03018440791084C1050.246063954357 138.57400498854508 975.1539885254372 767.4401590112714 801.996496042342 989.5165690854881 "></path><path d="M907.5348230042543 -92.12869960157786C1017.7337546531235 151.6452803250554 946.3962829956497 749.0681266466452 781.8966651367091 960.0407162171512C617.3970472777685 1171.0133057876571 313.3412849861609 1055.0364573613188 117.9366572813417 920.5397303368518C-77.46797042347725 786.0430033123848 -184.17161783408648 550.0010343679492 -156.0455478464214 314.45642649971194C-127.91947785875635 78.91181863147449 31.36254929491247 -125.36915282625205 252.94179322213677 -210.0743874306869C474.52103714936095 -294.7796220351217 797.3358913553852 -335.902679528211 907.5348230042543 -92.12869960157786C1017.7337546531235 151.6452803250554 946.3962829956497 749.0681266466452 781.8966651367091 960.0407162171512 "></path><path d="M880.8223964388576 -66.22715376008853C985.2213843167337 164.71661669672176 917.638516430706 730.6961553171755 761.7967731959202 930.5649243839705C605.9550299611344 1130.4336934507658 317.90220252697964 1020.5608896784452 132.7820289118879 893.1429377605289C-52.338144703203795 765.724985842613 -153.4258106711494 542.1062784215687 -126.78006015651931 318.9587551779754C-100.13430964188927 95.81123193438202 50.76445292474443 -97.71810944662207 260.6816313821148 -177.9651738087182C470.59880983948506 -258.2122381708143 776.4234085609817 -297.1709242168989 880.8223964388576 -66.22715376008853C985.2213843167337 164.71661669672176 917.638516430706 730.6961553171755 761.7967731959202 930.5649243839705 "></path><path d="M854.1101529789298 -40.32566895375544C952.7091970858128 177.78789203323208 888.8809329712308 712.3241229525495 741.6970643606 901.0890715156338C594.5131957499689 1089.8540200787181 322.46330317326715 986.0852609604153 147.62758364790284 865.7460841490499C-27.208135877461586 745.406907337685 -122.67982040274353 534.211461440032 -97.51438936114846 323.4610228210828C-72.34895831955339 112.71058420213353 70.16653966004515 -70.06712710214822 268.4216526475616 -145.85602122190568C466.6767656350779 -221.64491534166314 755.5111088720469 -258.43922994074313 854.1101529789298 -40.32566895375544C952.7091970858128 177.78789203323208 888.8809329712308 712.3241229525495 741.6970643606 901.0890715156338 "></path><path d="M827.3977874486895 -14.42409259468809C920.1968877845793 190.85925892247678 860.1232274414435 693.9521821406579 721.5972334549672 871.6133102000313C583.0712394684911 1049.2744382594049 327.0242817492424 951.6097237951196 162.47301631360529 838.3493220903056C-2.0782491220318207 725.0889203854911 -91.93395220465015 526.3167360112298 -68.24884063609011 327.96338201692447C-44.56372906753006 129.6100280226192 89.56850432503325 -42.416053204940056 276.16155184269576 -113.74677708235885C462.75459936035827 -185.07750095977764 734.5986871127998 -219.7074441118529 827.3977874486895 -14.42409259468809C920.1968877845793 190.85925892247678 860.1232274414435 693.9521821406579 721.5972334549672 871.6133102000313 "></path><path d="M800.6854524360274 11.477392211644997C887.684609000924 203.93053425898688 831.3655524292342 675.5801497760317 701.4974330669127 842.1374573316943C571.6293137045911 1008.694764887357 331.58529084279553 917.1340950770898 177.31847949688574 810.9524684788264C23.051668150976013 704.7708418805628 -61.18805348897865 518.4219190296927 -38.983261393453574 332.46564966003166C-16.778469297928552 146.50938029037047 108.97049950759947 -14.765070860466267 283.90148155540805 -81.63762449554639C458.83246360321675 -148.5101781306265 713.6862958711306 -180.97574983569706 800.6854524360274 11.477392211644997C887.684609000924 203.93053425898688 831.3655524292342 675.5801497760317 701.4974330669127 842.1374573316943 "></path><path d="M773.9730869057869 37.3788465003999C855.1722996996905 217.00177907791908 802.6078468994467 657.2080868938274 681.3976021612798 812.6615739457793C560.1873574231132 968.115060997731 336.14626941877054 882.6584358414816 192.1639121625882 783.5555843497691C48.18155490640572 684.4527328580566 -30.442185290885277 510.5270715305778 -9.717712668395222 336.9678867855607C11.006759954094832 163.40870204054374 128.37246417258768 12.885880966429397 291.64138075054234 -49.52850242631206C454.9102973284971 -111.94288581905346 692.7738741118833 -142.24408607711933 773.9730869057869 37.3788465003999C855.1722996996905 217.00177907791908 802.6078468994467 657.2080868938274 681.3976021612798 812.6615739457793 "></path><path d="M747.2606603403904 63.28039234188918C822.6599293633008 230.07311544958566 773.8500803345028 638.8361155643574 661.297710220491 783.1857821125986C548.745340106479 927.5354486608394 340.70718695958954 848.182868158608 207.00928379313427 756.1587917734464C73.31138062667918 664.1347153882848 0.3036218720518491 502.63231558419716 19.54777502150688 341.4702154638244C38.79192817096191 180.3081153434514 147.7743678024196 40.536924346059436 299.3812189105204 -17.419288804343296C450.9880700186211 -75.37550195474608 671.86139131748 -103.51233076580723 747.2606603403904 63.28039234188918C822.6599293633008 230.07311544958566 773.8500803345028 638.8361155643574 661.297710220491 783.1857821125986 "></path><path d="M720.5482948101499 89.18190766580034C790.1476200620673 243.14442130367388 745.0923748047153 620.4641137173097 641.1978793148583 753.7099597618399C537.303383825001 886.9558058063699 345.26816553556455 813.7072699581563 221.85471645883672 728.7619686795454C98.44126738210895 643.8166674009349 31.049490070145225 494.7375291202386 48.81332374656523 345.9725136245097C66.5771574229853 197.2074981287808 167.17633246740775 68.18793720811135 307.12111810565466 14.689894300047285C447.0659037439016 -38.808148608016836 650.9489695582326 -64.78060597207326 720.5482948101499 89.18190766580034C790.1476200620673 243.14442130367388 745.0923748047153 620.4641137173097 641.1978793148583 753.7099597618399 "></path><path d="M693.8359292799096 115.08339247213337C757.6353107608338 256.2156966401842 716.3346692749279 602.0920813526836 621.0980484092255 724.2341068935029C525.8614275435232 846.3761324343222 349.82914411153956 779.231641240126 236.70014912453917 701.3651150680662C123.57115413753866 623.4985888960065 61.7953582682386 486.8427121387017 78.07887247162358 350.4747812676169C94.36238667500862 214.10685039653208 186.5782971323959 95.83891955258514 314.86101730078883 46.79904688685974C443.1437374691818 -2.2408257788656556 630.0365477989853 -26.04891169591741 693.8359292799096 115.08339247213337C757.6353107608338 256.2156966401842 716.3346692749279 602.0920813526836 621.0980484092255 724.2341068935029 "></path><path d="M667.1236247848254 140.9849383136227C725.1230624947566 269.28703301185067 687.5770247802967 583.7201100232138 600.9982785387491 694.7583150603222C514.4195322972014 805.7965200974306 354.39018372267094 744.7560735572524 251.54564282539786 673.9683224917435C148.70110192812461 603.1805714262347 92.54128750148817 478.94795619232116 107.34448223183824 354.97710994588044C122.14767696218826 231.00626369943973 205.9803228325403 123.48996293221518 322.60097753107937 78.90826050882845C439.2216322296184 34.32655808544172 609.1241870748944 12.682843615394688 667.1236247848254 140.9849383136227C725.1230624947566 269.28703301185067 687.5770247802967 583.7201100232138 600.9982785387491 694.7583150603222 "></path><path d="M640.4112287370069 166.8863926023776C692.610722675945 282.35827783078275 658.8192887329311 565.3480471410096 580.8984171155382 665.2824316744071C502.97754549814533 765.2168162078046 358.95113178106794 710.2804143216445 266.39104497352207 646.5714383626863C173.8309581659762 582.8624624037284 123.28712518200342 471.05310869320624 136.61000043931847 359.4793470714096C149.93287569663352 247.9055854496129 225.38225697995034 151.14091475911084 330.3408462086355 111.01738257806278C435.29943543732065 70.89385039701472 588.211734798069 51.41450737397241 640.4112287370069 166.8863926023776C692.610722675945 282.35827783078275 658.8192887329311 565.3480471410096 580.8984171155382 665.2824316744071 "></path><path d="M613.6988784655557 192.78787740871064C660.0984286335006 295.4295531672931 630.0615984619327 546.9760147763836 560.7986014686945 635.8065788060703C491.53560447545647 724.6371428357571 363.51212561583213 675.8047856036145 281.2364928980136 619.1745847512075C198.96086018019503 562.5443838988002 154.03300863888586 463.15829171166956 165.87556442316588 363.9816147145169C177.7181202074459 264.8049377173643 244.78423690372756 178.7918971035847 338.08076066255876 143.12653516487524C431.3772844213901 107.46117322616584 567.2993282976108 90.14620165012826 613.6988784655557 192.78787740871064C660.0984286335006 295.4295531672931 630.0615984619327 546.9760147763836 560.7986014686945 635.8065788060703 "></path><path d="M586.9865281941044 218.68943850898904C627.5861345910562 308.5009047977486 601.3039081909343 528.6040587057028 540.6987858218508 606.3308022316787C480.0936634527675 684.0575457576546 368.0731194505962 641.3292331795299 296.08194082250503 591.7778074336736C224.0907621944138 542.2263816878174 184.7788920957683 455.26355102407797 195.1411284070133 368.4839586515694C205.50336471825835 281.70436627906093 264.1862168275048 206.44295574200373 345.8206751164821 175.23576404563306C427.4551334054595 144.02857234926233 546.3869217971526 128.87797222022942 586.9865281941044 218.68943850898904C627.5861345910562 308.5009047977486 601.3039081909343 528.6040587057028 540.6987858218508 606.3308022316787 "></path><path d="M560.274162663864 244.59095383290014C595.0738252898227 321.57221065183694 572.5462026611467 510.2320568586549 520.5989549162182 576.8549798809199C468.65170717128956 643.4779029031849 372.63409802657134 606.8536349790782 310.9273734882074 564.3809843397727C249.2206489498435 521.9083337004674 215.52476029386168 447.3687645601193 224.4066771320717 372.98625681225485C233.28859397028168 298.6037490643904 283.58818149249294 234.0939686040557 353.5605743116164 207.34494715002364C423.53296713073985 180.59592569599158 525.4745000379054 167.60969701396334 560.274162663864 244.59095383290014C595.0738252898227 321.57221065183694 572.5462026611467 510.2320568586549 520.5989549162182 576.8549798809199 "></path><path d="M533.5618123924128 270.4924538980223C562.5615312473783 334.64350124713627 543.7885123901483 491.8600397528178 500.4991392693746 547.3791422713721C457.2097661486007 602.8982447899263 377.19509186133547 572.3780215198371 325.77282141269893 536.9841459870827C274.35055096406234 501.5902704543282 246.2706437507441 439.4739628373716 253.67224111591912 377.4885397141511C261.0738384810941 315.5031165909308 302.99016141627015 261.7449662073185 361.3004887655397 239.45411499562516C419.61081611480927 217.16326378393177 504.56209353744725 206.34140654890825 533.5618123924128 270.4924538980223C562.5615312473783 334.64350124713627 543.7885123901483 491.8600397528178 500.4991392693746 547.3791422713721 "></path><path d="M506.84941634459426 296.39396922193345C530.0491914285667 347.71480710122466 515.0307763427827 473.48803790576994 480.3992778461636 517.9033199206133C445.76777934954464 562.3186019354566 381.7560399197325 537.9024233193854 340.6182235608232 509.58732289318186C299.4804072019139 481.2722224669783 277.01648143125936 431.5791763734129 282.93775932339935 381.9908378748366C288.8590372155394 332.40249937626027 322.3920955636802 289.39597906937047 369.0403574430958 271.56329810001574C415.68861932251144 253.73061713066107 483.6496412606218 245.07313134264223 506.84941634459426 296.39396922193345C530.0491914285667 347.71480710122466 515.0307763427827 473.48803790576994 480.3992778461636 517.9033199206133 "></path><path d="M480.13706607314293 322.2954845458446C497.5368973861223 360.786112955313 486.2730860717843 455.116036058722 460.29946219932003 488.4274975698545C434.3258383268557 521.738959080987 386.3170337544966 503.4268251189336 355.46367148531465 482.1904997992808C324.6103092161327 460.95417447962825 307.76236488814175 423.6843899094542 312.20332330724676 386.49313603552196C316.6442817263518 349.30188216158973 341.7940754874574 317.0469919314224 376.78027189701913 303.6724812044063C411.76646830658086 290.2979704773903 462.7372347601636 283.8048561363762 480.13706607314293 322.2954845458446C497.5368973861223 360.786112955313 486.2730860717843 455.116036058722 460.29946219932003 488.4274975698545 "></path><path d="M453.42471580169166 348.19698461096675C465.0246033436779 373.85740355061233 457.5153958007859 436.74401895288497 440.19964655247634 458.95165996030664C422.88389730416685 481.1593009677283 390.87802758926074 468.9512116596927 370.3091194098061 454.79366144659093C349.74021123035146 440.63611123348915 338.5082483450242 415.78958818670645 341.46888729109423 390.99541893741826C344.4295262371642 366.20124968813013 361.1960554112346 344.69798953468523 384.5201863509424 335.7816490500079C407.8443172906502 326.8653085653305 441.82482825970544 322.5365656713211 453.42471580169166 348.19698461096675C465.0246033436779 373.85740355061233 457.5153958007859 436.74401895288497 440.19964655247634 458.95165996030664 "></path><path d="M426.7123655302404 374.09848467608884C432.5123093012335 386.9286941459116 428.7577055297875 418.37200184704795 420.0998309056327 429.4758223507588C411.4419562814779 440.5796428544696 395.43902142402493 434.4755982004518 385.1545673342976 427.39682309390093C374.8701132445703 420.31804798735004 369.2541318019066 407.89478646395867 370.73445127494165 395.49770183931463C372.2147707479766 383.10061721467054 380.59803533501184 372.3489871379481 392.2601008048658 367.8908168956094C403.92216627471964 363.43264665327075 420.91242175924725 361.268275206266 426.7123655302404 374.09848467608884C432.5123093012335 386.9286941459116 428.7577055297875 418.37200184704795 420.0998309056327 429.4758223507588 "></path></g></svg>